<?xml version="1.0" encoding="UTF-8"?>

<!DOCTYPE svg PUBLIC "-//W3C//DTD SVG 1.1 Tiny//EN"
"http://www.w3.org/Graphics/SVG/1.1/DTD/svg11-tiny.dtd">

<svg version="1.1" baseProfile="basic" xmlns="http://www.w3.org/2000/svg"
xmlns:xlink="http://www.w3.org/1999/xlink" width="1000" height="500"
class="global">
<style type="text/css"><![CDATA[
    .global {
        fill: none;
        font-family: arial, sans-serif;
        cursor: default;
        -webkit-touch-callout: none; /* iOS Safari */
        -webkit-user-select: none;   /* Chrome/Safari/Opera */
        -khtml-user-select: none;    /* Konqueror */
        -moz-user-select: none;      /* Firefox */
        -ms-user-select: none;       /* IE/Edge */
        user-select: none;           /* non-prefixed version, currently*/
        pointer-events: all;
        shape-rendering: crispEdges;
    }
    .btc-header-field rect, .btc-tx rect {
        fill: #2b2b2b;/*dark-grey*/
        stroke: #6a6a6a;/*light-grey*/
        stroke-width: 1;
    }
    .btc-header-field text, .btc-tx text {
        text-anchor: middle;
        font-size: 16px;
        fill: #bbbbbb;/*off-white*/
    }
    .braces path {
        stroke: #6a6a6a;/*light-grey*/
        /*fill: #6a6a6a;light-grey*/
        stroke-width: 1;
    }
]]></style>
    <g class="btc-block" transform="translate(0,50)">
        <g class="btc-header">
            <g class="btc-header-field" transform="translate(0,0)">
                <rect x="0" y="0" width="150" height="30"/>
                <text x="75" y="21">version</text>
            </g>
            <g class="btc-header-field" transform="translate(0,30)">
                <rect x="0" y="0" width="150" height="30"/>
                <text x="75" y="21">previous block hash</text>
            </g>
            <g class="btc-header-field" transform="translate(0,60)">
                <rect x="0" y="0" width="150" height="30" class="btc-header-field"/>
                <text x="75" y="21">merkle root</text>
            </g>
            <g class="btc-header-field" transform="translate(0,90)">
                <rect x="0" y="0" width="150" height="30"/>
                <text x="75" y="21">timestamp</text>
            </g>
            <g class="btc-header-field" transform="translate(0,120)">
                <rect x="0" y="0" width="150" height="30"/>
                <text x="75" y="21">difficulty</text>
            </g>
            <g class="btc-header-field" transform="translate(0,150)">
                <rect x="0" y="0" width="150" height="30"/>
                <text x="75" y="21">nonce</text>
            </g>
            <g class="btc-header-field" transform="translate(0,180)">
                <rect x="0" y="0" width="150" height="30"/>
                <text x="75" y="21">merkle root</text>
            </g>
        </g>
        <g class="btc-txs" transform="translate(0,210)">
            <g class="btc-tx">
                <rect x="0" y="0" width="150" height="30"/>
                <text x="75" y="21">transaction 1</text>
            </g>
        </g>
    </g>
    <g class="braces" transform="translate(165,50)">
        <path d="M0,0 C60,0 0,102.5 50,102.5"/>
        <path d="M50,102.5 C95,102.5 50,42.5 90,42.5"/> 
        <path d="M90,42.5 L90,40 L100,45 L90,50 L90,47.5"/>
        <path d="M50,107.5 C100,107.5 55,47.5 90,47.5"/> 
        <path d="M50,107.5 C0,107.5 60,210 0,210"/>
        <path d="M0,210 L0,205"/>
        <path d="M0,205 C50,205 0,105 35,105"/>
        <path d="M35,105 C0,105 50,5 0,5"/>
        <path d="M0,5 L0,0"/>
    </g>
</svg>
