<svg aria-hidden="true" style="position: absolute; width: 0; height: 0; overflow: hidden;" version="1.1" xmlns="http://www.w3.org/2000/svg" xmlns:xlink="http://www.w3.org/1999/xlink">
<defs>
<symbol id="icon-arrows-h" viewBox="0 -5 28 28">
<title>arrows-h</title>
<path d="M28 14c0 0.266-0.109 0.516-0.297 0.703l-4 4c-0.187 0.187-0.438 0.297-0.703 0.297-0.547 0-1-0.453-1-1v-2h-16v2c0 0.547-0.453 1-1 1-0.266 0-0.516-0.109-0.703-0.297l-4-4c-0.187-0.187-0.297-0.438-0.297-0.703s0.109-0.516 0.297-0.703l4-4c0.187-0.187 0.438-0.297 0.703-0.297 0.547 0 1 0.453 1 1v2h16v-2c0-0.547 0.453-1 1-1 0.266 0 0.516 0.109 0.703 0.297l4 4c0.187 0.187 0.297 0.438 0.297 0.703z"></path>
</symbol>
<symbol id="icon-external-link" viewBox="0 -4 28 28">
<title>external-link</title>
<path d="M22 14.5v5c0 2.484-2.016 4.5-4.5 4.5h-13c-2.484 0-4.5-2.016-4.5-4.5v-13c0-2.484 2.016-4.5 4.5-4.5h11c0.281 0 0.5 0.219 0.5 0.5v1c0 0.281-0.219 0.5-0.5 0.5h-11c-1.375 0-2.5 1.125-2.5 2.5v13c0 1.375 1.125 2.5 2.5 2.5h13c1.375 0 2.5-1.125 2.5-2.5v-5c0-0.281 0.219-0.5 0.5-0.5h1c0.281 0 0.5 0.219 0.5 0.5zM28 1v8c0 0.547-0.453 1-1 1-0.266 0-0.516-0.109-0.703-0.297l-2.75-2.75-10.187 10.187c-0.094 0.094-0.234 0.156-0.359 0.156s-0.266-0.063-0.359-0.156l-1.781-1.781c-0.094-0.094-0.156-0.234-0.156-0.359s0.063-0.266 0.156-0.359l10.187-10.187-2.75-2.75c-0.187-0.187-0.297-0.438-0.297-0.703 0-0.547 0.453-1 1-1h8c0.547 0 1 0.453 1 1z"></path>
</symbol>
<symbol id="icon-github" viewBox="0 0 24 24">
<title>github</title>
<path d="M12 2c6.625 0 12 5.375 12 12 0 5.297-3.437 9.797-8.203 11.391-0.609 0.109-0.828-0.266-0.828-0.578 0-0.391 0.016-1.687 0.016-3.297 0-1.125-0.375-1.844-0.812-2.219 2.672-0.297 5.484-1.313 5.484-5.922 0-1.313-0.469-2.375-1.234-3.219 0.125-0.313 0.531-1.531-0.125-3.187-1-0.313-3.297 1.234-3.297 1.234-0.953-0.266-1.984-0.406-3-0.406s-2.047 0.141-3 0.406c0 0-2.297-1.547-3.297-1.234-0.656 1.656-0.25 2.875-0.125 3.187-0.766 0.844-1.234 1.906-1.234 3.219 0 4.594 2.797 5.625 5.469 5.922-0.344 0.313-0.656 0.844-0.766 1.609-0.688 0.313-2.438 0.844-3.484-1-0.656-1.141-1.844-1.234-1.844-1.234-1.172-0.016-0.078 0.734-0.078 0.734 0.781 0.359 1.328 1.75 1.328 1.75 0.703 2.141 4.047 1.422 4.047 1.422 0 1 0.016 1.937 0.016 2.234 0 0.313-0.219 0.688-0.828 0.578-4.766-1.594-8.203-6.094-8.203-11.391 0-6.625 5.375-12 12-12zM4.547 19.234c0.031-0.063-0.016-0.141-0.109-0.187-0.094-0.031-0.172-0.016-0.203 0.031-0.031 0.063 0.016 0.141 0.109 0.187 0.078 0.047 0.172 0.031 0.203-0.031zM5.031 19.766c0.063-0.047 0.047-0.156-0.031-0.25-0.078-0.078-0.187-0.109-0.25-0.047-0.063 0.047-0.047 0.156 0.031 0.25 0.078 0.078 0.187 0.109 0.25 0.047zM5.5 20.469c0.078-0.063 0.078-0.187 0-0.297-0.063-0.109-0.187-0.156-0.266-0.094-0.078 0.047-0.078 0.172 0 0.281s0.203 0.156 0.266 0.109zM6.156 21.125c0.063-0.063 0.031-0.203-0.063-0.297-0.109-0.109-0.25-0.125-0.313-0.047-0.078 0.063-0.047 0.203 0.063 0.297 0.109 0.109 0.25 0.125 0.313 0.047zM7.047 21.516c0.031-0.094-0.063-0.203-0.203-0.25-0.125-0.031-0.266 0.016-0.297 0.109s0.063 0.203 0.203 0.234c0.125 0.047 0.266 0 0.297-0.094zM8.031 21.594c0-0.109-0.125-0.187-0.266-0.172-0.141 0-0.25 0.078-0.25 0.172 0 0.109 0.109 0.187 0.266 0.172 0.141 0 0.25-0.078 0.25-0.172zM8.937 21.438c-0.016-0.094-0.141-0.156-0.281-0.141-0.141 0.031-0.234 0.125-0.219 0.234 0.016 0.094 0.141 0.156 0.281 0.125s0.234-0.125 0.219-0.219z"></path>
</symbol>
<symbol id="icon-feed" viewBox="0 -4 22 28">
<title>feed</title>
<path d="M6 21c0 1.656-1.344 3-3 3s-3-1.344-3-3 1.344-3 3-3 3 1.344 3 3zM14 22.922c0.016 0.281-0.078 0.547-0.266 0.75-0.187 0.219-0.453 0.328-0.734 0.328h-2.109c-0.516 0-0.938-0.391-0.984-0.906-0.453-4.766-4.234-8.547-9-9-0.516-0.047-0.906-0.469-0.906-0.984v-2.109c0-0.281 0.109-0.547 0.328-0.734 0.172-0.172 0.422-0.266 0.672-0.266h0.078c3.328 0.266 6.469 1.719 8.828 4.094 2.375 2.359 3.828 5.5 4.094 8.828zM22 22.953c0.016 0.266-0.078 0.531-0.281 0.734-0.187 0.203-0.438 0.313-0.719 0.313h-2.234c-0.531 0-0.969-0.406-1-0.938-0.516-9.078-7.75-16.312-16.828-16.844-0.531-0.031-0.938-0.469-0.938-0.984v-2.234c0-0.281 0.109-0.531 0.313-0.719 0.187-0.187 0.438-0.281 0.688-0.281h0.047c5.469 0.281 10.609 2.578 14.484 6.469 3.891 3.875 6.188 9.016 6.469 14.484z"></path>
</symbol>
<symbol id="icon-chain" viewBox="0 0 26 26">
<title>chain</title>
<path d="M22.75 19c0-0.406-0.156-0.781-0.438-1.062l-3.25-3.25c-0.281-0.281-0.672-0.438-1.062-0.438-0.453 0-0.812 0.172-1.125 0.5 0.516 0.516 1.125 0.953 1.125 1.75 0 0.828-0.672 1.5-1.5 1.5-0.797 0-1.234-0.609-1.75-1.125-0.328 0.313-0.516 0.672-0.516 1.141 0 0.391 0.156 0.781 0.438 1.062l3.219 3.234c0.281 0.281 0.672 0.422 1.062 0.422s0.781-0.141 1.062-0.406l2.297-2.281c0.281-0.281 0.438-0.656 0.438-1.047zM11.766 7.984c0-0.391-0.156-0.781-0.438-1.062l-3.219-3.234c-0.281-0.281-0.672-0.438-1.062-0.438s-0.781 0.156-1.062 0.422l-2.297 2.281c-0.281 0.281-0.438 0.656-0.438 1.047 0 0.406 0.156 0.781 0.438 1.062l3.25 3.25c0.281 0.281 0.672 0.422 1.062 0.422 0.453 0 0.812-0.156 1.125-0.484-0.516-0.516-1.125-0.953-1.125-1.75 0-0.828 0.672-1.5 1.5-1.5 0.797 0 1.234 0.609 1.75 1.125 0.328-0.313 0.516-0.672 0.516-1.141zM25.75 19c0 1.188-0.484 2.344-1.328 3.172l-2.297 2.281c-0.844 0.844-1.984 1.297-3.172 1.297-1.203 0-2.344-0.469-3.187-1.328l-3.219-3.234c-0.844-0.844-1.297-1.984-1.297-3.172 0-1.234 0.5-2.406 1.375-3.266l-1.375-1.375c-0.859 0.875-2.016 1.375-3.25 1.375-1.188 0-2.344-0.469-3.187-1.313l-3.25-3.25c-0.859-0.859-1.313-1.984-1.313-3.187 0-1.188 0.484-2.344 1.328-3.172l2.297-2.281c0.844-0.844 1.984-1.297 3.172-1.297 1.203 0 2.344 0.469 3.187 1.328l3.219 3.234c0.844 0.844 1.297 1.984 1.297 3.172 0 1.234-0.5 2.406-1.375 3.266l1.375 1.375c0.859-0.875 2.016-1.375 3.25-1.375 1.188 0 2.344 0.469 3.187 1.313l3.25 3.25c0.859 0.859 1.313 1.984 1.313 3.187z"></path>
</symbol>
<symbol id="icon-chain-90" viewBox="0 0 26 26">
<title>chain-90</title>
<path d="M22.75 19c0-0.406-0.156-0.781-0.438-1.062l-3.25-3.25c-0.281-0.281-0.672-0.438-1.062-0.438-0.453 0-0.812 0.172-1.125 0.5 0.516 0.516 1.125 0.953 1.125 1.75 0 0.828-0.672 1.5-1.5 1.5-0.797 0-1.234-0.609-1.75-1.125-0.328 0.313-0.516 0.672-0.516 1.141 0 0.391 0.156 0.781 0.438 1.062l3.219 3.234c0.281 0.281 0.672 0.422 1.062 0.422s0.781-0.141 1.062-0.406l2.297-2.281c0.281-0.281 0.438-0.656 0.438-1.047zM11.766 7.984c0-0.391-0.156-0.781-0.438-1.062l-3.219-3.234c-0.281-0.281-0.672-0.438-1.062-0.438s-0.781 0.156-1.062 0.422l-2.297 2.281c-0.281 0.281-0.438 0.656-0.438 1.047 0 0.406 0.156 0.781 0.438 1.062l3.25 3.25c0.281 0.281 0.672 0.422 1.062 0.422 0.453 0 0.812-0.156 1.125-0.484-0.516-0.516-1.125-0.953-1.125-1.75 0-0.828 0.672-1.5 1.5-1.5 0.797 0 1.234 0.609 1.75 1.125 0.328-0.313 0.516-0.672 0.516-1.141zM25.75 19c0 1.188-0.484 2.344-1.328 3.172l-2.297 2.281c-0.844 0.844-1.984 1.297-3.172 1.297-1.203 0-2.344-0.469-3.187-1.328l-3.219-3.234c-0.844-0.844-1.297-1.984-1.297-3.172 0-1.234 0.5-2.406 1.375-3.266l-1.375-1.375c-0.859 0.875-2.016 1.375-3.25 1.375-1.188 0-2.344-0.469-3.187-1.313l-3.25-3.25c-0.859-0.859-1.313-1.984-1.313-3.187 0-1.188 0.484-2.344 1.328-3.172l2.297-2.281c0.844-0.844 1.984-1.297 3.172-1.297 1.203 0 2.344 0.469 3.187 1.328l3.219 3.234c0.844 0.844 1.297 1.984 1.297 3.172 0 1.234-0.5 2.406-1.375 3.266l1.375 1.375c0.859-0.875 2.016-1.375 3.25-1.375 1.188 0 2.344 0.469 3.187 1.313l3.25 3.25c0.859 0.859 1.313 1.984 1.313 3.187z" transform="rotate(90 13 13)"></path>
</symbol>
<symbol id="icon-bars" viewBox="0 0 24 28">
<title>bars</title>
<path d="M24 21v2c0 0.547-0.453 1-1 1h-22c-0.547 0-1-0.453-1-1v-2c0-0.547 0.453-1 1-1h22c0.547 0 1 0.453 1 1zM24 13v2c0 0.547-0.453 1-1 1h-22c-0.547 0-1-0.453-1-1v-2c0-0.547 0.453-1 1-1h22c0.547 0 1 0.453 1 1zM24 5v2c0 0.547-0.453 1-1 1h-22c-0.547 0-1-0.453-1-1v-2c0-0.547 0.453-1 1-1h22c0.547 0 1 0.453 1 1z"></path>
</symbol>
<symbol id="icon-file-text-o" viewBox="0 0 24 28">
<title>file-text-o</title>
<path d="M22.937 5.938c0.578 0.578 1.062 1.734 1.062 2.562v18c0 0.828-0.672 1.5-1.5 1.5h-21c-0.828 0-1.5-0.672-1.5-1.5v-25c0-0.828 0.672-1.5 1.5-1.5h14c0.828 0 1.984 0.484 2.562 1.062zM16 2.125v5.875h5.875c-0.094-0.266-0.234-0.531-0.344-0.641l-4.891-4.891c-0.109-0.109-0.375-0.25-0.641-0.344zM22 26v-16h-6.5c-0.828 0-1.5-0.672-1.5-1.5v-6.5h-12v24h20zM6 12.5c0-0.281 0.219-0.5 0.5-0.5h11c0.281 0 0.5 0.219 0.5 0.5v1c0 0.281-0.219 0.5-0.5 0.5h-11c-0.281 0-0.5-0.219-0.5-0.5v-1zM17.5 16c0.281 0 0.5 0.219 0.5 0.5v1c0 0.281-0.219 0.5-0.5 0.5h-11c-0.281 0-0.5-0.219-0.5-0.5v-1c0-0.281 0.219-0.5 0.5-0.5h11zM17.5 20c0.281 0 0.5 0.219 0.5 0.5v1c0 0.281-0.219 0.5-0.5 0.5h-11c-0.281 0-0.5-0.219-0.5-0.5v-1c0-0.281 0.219-0.5 0.5-0.5h11z"></path>
</symbol>
<symbol id="icon-folder-open-o" viewBox="0 -4 30 30">
<title>folder-open-o</title>
<path d="M27.828 14.547c0-0.438-0.484-0.547-0.828-0.547h-17c-0.828 0-1.922 0.516-2.453 1.156l-4.594 5.672c-0.141 0.187-0.281 0.391-0.281 0.625 0 0.438 0.484 0.547 0.828 0.547h17c0.828 0 1.922-0.516 2.453-1.172l4.594-5.672c0.141-0.172 0.281-0.375 0.281-0.609zM10 12h12v-2.5c0-0.828-0.672-1.5-1.5-1.5h-9c-0.828 0-1.5-0.672-1.5-1.5v-1c0-0.828-0.672-1.5-1.5-1.5h-5c-0.828 0-1.5 0.672-1.5 1.5v13.328l4-4.922c0.906-1.109 2.578-1.906 4-1.906zM29.828 14.547c0 0.688-0.297 1.344-0.719 1.875l-4.609 5.672c-0.891 1.094-2.594 1.906-4 1.906h-17c-1.922 0-3.5-1.578-3.5-3.5v-15c0-1.922 1.578-3.5 3.5-3.5h5c1.922 0 3.5 1.578 3.5 3.5v0.5h8.5c1.922 0 3.5 1.578 3.5 3.5v2.5h3c1.062 0 2.125 0.484 2.594 1.484 0.156 0.328 0.234 0.688 0.234 1.062z"></path>
</symbol>
<symbol id="icon-level-left" viewBox="0 -4 16 28">
<title>level-left</title>
<path d="M0.5 4h11c0.281 0 0.5 0.234 0.5 0.516v13.484h3c0.391 0 0.734 0.234 0.906 0.578 0.172 0.359 0.109 0.781-0.141 1.078l-5 6c-0.375 0.453-1.156 0.453-1.531 0l-5-6c-0.25-0.297-0.297-0.719-0.141-1.078 0.172-0.344 0.516-0.578 0.906-0.578h3v-10h-5c-0.141 0-0.281-0.063-0.391-0.172l-2.5-3c-0.125-0.141-0.141-0.359-0.063-0.531s0.266-0.297 0.453-0.297z" transform="rotate(90 8 14)"></path>
</symbol>
<symbol id="icon-circle-o-notch" viewBox="0 0 28 28">
<title>circle-o-notch</title>
<path d="M27.5 14c0 7.453-6.047 13.5-13.5 13.5s-13.5-6.047-13.5-13.5c0-6.781 5-12.391 11.5-13.359v3.563c-4.562 0.922-8 4.969-8 9.797 0 5.516 4.484 10 10 10s10-4.484 10-10c0-4.828-3.437-8.875-8-9.797v-3.563c6.5 0.969 11.5 6.578 11.5 13.359z"></path>
</symbol>
<symbol id="icon-hashtag" viewBox="0 0 28 28">
<title>hashtag</title>
<path d="M15.484 16l1-4h-3.969l-1 4h3.969zM27.484 8.125l-0.875 3.5c-0.063 0.219-0.25 0.375-0.484 0.375h-5.109l-1 4h4.859c0.156 0 0.297 0.078 0.391 0.187 0.094 0.125 0.141 0.281 0.094 0.438l-0.875 3.5c-0.047 0.219-0.25 0.375-0.484 0.375h-5.109l-1.266 5.125c-0.063 0.219-0.266 0.375-0.484 0.375h-3.5c-0.156 0-0.313-0.078-0.406-0.187-0.094-0.125-0.125-0.281-0.094-0.438l1.219-4.875h-3.969l-1.266 5.125c-0.063 0.219-0.266 0.375-0.484 0.375h-3.516c-0.141 0-0.297-0.078-0.391-0.187-0.094-0.125-0.125-0.281-0.094-0.438l1.219-4.875h-4.859c-0.156 0-0.297-0.078-0.391-0.187-0.094-0.125-0.125-0.281-0.094-0.438l0.875-3.5c0.063-0.219 0.25-0.375 0.484-0.375h5.109l1-4h-4.859c-0.156 0-0.297-0.078-0.391-0.187-0.094-0.125-0.141-0.281-0.094-0.438l0.875-3.5c0.047-0.219 0.25-0.375 0.484-0.375h5.109l1.266-5.125c0.063-0.219 0.266-0.375 0.5-0.375h3.5c0.141 0 0.297 0.078 0.391 0.187 0.094 0.125 0.125 0.281 0.094 0.438l-1.219 4.875h3.969l1.266-5.125c0.063-0.219 0.266-0.375 0.5-0.375h3.5c0.141 0 0.297 0.078 0.391 0.187 0.094 0.125 0.125 0.281 0.094 0.438l-1.219 4.875h4.859c0.156 0 0.297 0.078 0.391 0.187 0.094 0.125 0.125 0.281 0.094 0.438z"></path>
</symbol>
<symbol id="icon-disqus" viewBox="0 0 32 32">
<title>disqus</title>
<path fill="#2e9fff" style="fill: var(--color1, #2e9fff)" d="M16.584 31.539c-3.804 0-7.28-1.387-9.968-3.688l-6.616 0.907 2.556-6.311c-0.889-1.967-1.389-4.147-1.389-6.447 0-8.581 6.9-15.539 15.42-15.539 8.507 0 15.413 6.957 15.413 15.539 0 8.584-6.901 15.539-15.416 15.539zM25.004 15.956v-0.044c0-4.484-3.164-7.68-8.616-7.68h-5.885v15.541h5.8c5.493 0 8.7-3.333 8.7-7.817h0.005zM16.451 19.953h-1.72v-7.9h1.72c2.529 0 4.209 1.44 4.209 3.927v0.040c0 2.512-1.68 3.933-4.209 3.933z"></path>
</symbol>
<symbol id="icon-facebook2" viewBox="0 0 32 32">
<title>facebook2</title>
<path d="M29 0h-26c-1.65 0-3 1.35-3 3v26c0 1.65 1.35 3 3 3h13v-14h-4v-4h4v-2c0-3.306 2.694-6 6-6h4v4h-4c-1.1 0-2 0.9-2 2v2h6l-1 4h-5v14h9c1.65 0 3-1.35 3-3v-26c0-1.65-1.35-3-3-3z"></path>
</symbol>
</defs>
</svg>
